# xmcd
#
# Track frame offsets: 
#        150
#        13995
#        27733
#        41477
#        54970
#        77165
#        95363
#        106315
#        122898
#        140458
#        186772
#        198987
#
# Disc length: 2737 seconds
#
# Revision: 2
# Processed by: cddbd v1.5.2PL0 Copyright (c) Steve Scherf et al.
# Submitted via: ExactAudioCopy v1.3
#
DISCID=a20aaf0c
DTITLE=Johnny Cash - In Prague Live
DYEAR=1983
DGENRE=Country
TTITLE0=Ring Of Fire
TTITLE1=Folsom Prison Blues
TTITLE2=I Still Miss Someone
TTITLE3=Big River
TTITLE4=Cowboy Medley
TTITLE5=Sunday Morning Coming Down
TTITLE6=I Walk The Line
TTITLE7=Last Date
TTITLE8=City Of New Orleans
TTITLE9=Railroad Medley
TTITLE10=Wabash Cannonball
TTITLE11=Wabash Cannonball(Conclusion)
EXTD=
EXTT0=
EXTT1=
EXTT2=
EXTT3=
EXTT4=
EXTT5=
EXTT6=
EXTT7=
EXTT8=
EXTT9=
EXTT10=
EXTT11=
PLAYORDER=
